<svg width="23" height="23" viewBox="0 0 23 23" fill="none" xmlns="http://www.w3.org/2000/svg">
<path d="M22.9402 10.4487C22.9103 9.95666 22.8252 9.4644 22.7171 8.98157C22.4322 7.67823 21.9056 6.43148 21.1885 5.30688C19.5701 2.76116 16.9129 0.892416 13.9574 0.271341C13.5239 0.170668 13.0837 0.10072 12.6403 0.0620158C12.0571 -0.00157308 11.4695 -0.0146566 10.884 0.0229111C10.4061 0.0399208 9.93024 0.0953055 9.46114 0.188531C9.03115 0.248338 8.61288 0.367953 8.19645 0.480436C7.80785 0.602351 7.42178 0.740367 7.04467 0.899086C6.68486 1.04933 6.33346 1.21895 5.99199 1.40722C5.6535 1.58987 5.32575 1.79178 5.01037 2.01196C4.93248 2.06917 4.85108 2.12141 4.76663 2.16838C3.98045 1.57031 3.18508 0.986497 2.35751 0.448462C2.1301 0.308145 1.90936 0.149426 1.65412 0.064316C1.23585 -0.0829017 0.746304 0.0298119 0.417486 0.328848C0.104533 0.606491 -0.0309029 1.03894 0.00588797 1.45046C0.0081874 1.9977 0.00358854 2.54746 0.0104868 3.0947C0.00358854 3.64677 0.0081874 4.20297 0.00588797 4.75504C0.00358854 5.30711 0.00358853 5.85917 0.00818739 6.41124C0.00358853 7.05532 0.00358853 7.6984 0.00818739 8.34048C0.00358853 8.96585 0.00435501 9.5913 0.0104868 10.2168C0.0150857 10.9989 -0.026304 11.7851 0.0608443 12.5647C0.122929 13.3673 0.288488 14.1629 0.527628 14.9287C1.6171 18.4907 4.55715 21.4385 8.13414 22.4805L8.13644 22.4943C8.88122 22.7151 9.6467 22.8785 10.4191 22.938C11.2763 23.0208 12.1453 23.0185 12.9981 22.8877C13.4557 22.8532 13.9039 22.7404 14.352 22.6415C14.8665 22.5047 15.3721 22.3363 15.866 22.1375C16.3282 21.9397 16.7857 21.7258 17.2201 21.4682C17.6059 21.2498 17.9775 21.0071 18.3326 20.7415C18.7477 20.4351 19.1417 20.101 19.5117 19.7413C19.7968 19.4645 20.0669 19.1728 20.3209 18.8672C20.5704 18.5694 20.8047 18.2591 21.0229 17.9375C21.2206 17.6433 21.4046 17.3373 21.5817 17.0291C21.7631 16.6797 21.9378 16.33 22.0942 15.9691C22.2644 15.5367 22.4322 15.1021 22.5516 14.6538C22.6527 14.2858 22.7631 13.9177 22.7999 13.5384C22.8965 13.1384 22.9402 12.7174 22.9563 12.3082C23.0118 11.6893 23.0064 11.0665 22.9402 10.4487ZM18.729 8.94016C18.5887 9.31281 18.3427 9.63232 18.0507 9.89915C17.7957 10.1522 17.5427 10.4073 17.2875 10.6626C17.0164 10.9338 16.745 11.2029 16.4762 11.4767C16.2164 11.7341 15.9566 11.9917 15.697 12.2539C15.4141 12.5366 15.129 12.8196 14.8487 13.1025C14.5268 13.4266 14.2028 13.7466 13.8809 14.0705C13.5773 14.3764 13.2718 14.6798 12.9659 14.9858C12.6601 15.2917 12.3499 15.5997 12.0441 15.9079C11.7615 16.1791 11.504 16.4805 11.1846 16.713C10.7859 16.9621 10.3234 17.09 9.85342 17.0811C9.31099 17.0466 8.78005 16.8329 8.38915 16.451C7.18701 15.2484 5.98402 14.0446 4.78019 12.8396C4.4861 12.5475 4.28834 12.1704 4.18234 11.7725C4.07197 11.223 4.13635 10.6343 4.41918 10.1446C4.6351 9.76504 4.96622 9.46371 5.34309 9.24748C5.75766 9.05146 6.21843 8.97422 6.67423 9.02435C7.16608 9.09796 7.63723 9.32339 7.98215 9.6866C8.63496 10.3397 9.28546 10.995 9.94287 11.646C10.1406 11.4574 10.3315 11.2595 10.52 11.064C10.796 10.7997 11.0671 10.5283 11.3313 10.2499C11.5934 10.0063 11.844 9.74871 12.0921 9.48878C12.2692 9.33029 12.4302 9.15547 12.6003 8.98755C12.8763 8.71842 13.1451 8.44491 13.4141 8.17118C13.6737 7.92298 13.9243 7.66512 14.175 7.41209C14.4461 7.14779 14.7105 6.87636 14.9798 6.60952C15.2507 6.3335 15.583 6.12549 15.9497 6.00248C16.4203 5.87121 16.9191 5.88201 17.3836 6.03353C17.9745 6.25896 18.448 6.72362 18.7078 7.29593C18.8989 7.82269 18.9219 8.41133 18.729 8.94016Z" fill="#0C6D95"/>
</svg>
