<svg width="20" height="20" viewBox="0 0 20 20" fill="none" xmlns="http://www.w3.org/2000/svg">
<g clip-path="url(#clip0_243_12508)">
<path d="M18.5 1.80287C18.0315 1.41115 17.4826 1.12737 16.8921 0.971678C16.3016 0.81599 15.684 0.792215 15.0833 0.90204L11.8983 1.48037C11.163 1.61541 10.4944 1.99373 10 2.55454C9.5043 1.99276 8.8338 1.61436 8.09667 1.48037L4.91667 0.90204C4.31596 0.792118 3.69844 0.815582 3.10781 0.97077C2.51718 1.12596 1.96789 1.40908 1.4988 1.80009C1.02972 2.19109 0.652322 2.68043 0.393318 3.23346C0.134315 3.78649 4.0677e-05 4.3897 0 5.00037L0 13.9945C4.78799e-05 14.9702 0.342481 15.9149 0.967611 16.664C1.59274 17.4131 2.46092 17.9191 3.42083 18.0937L8.65917 19.0462C9.5458 19.2073 10.4542 19.2073 11.3408 19.0462L16.5833 18.0937C17.5425 17.9182 18.4097 17.4119 19.034 16.6629C19.6583 15.9138 20.0001 14.9696 20 13.9945V5.00037C20.0004 4.38991 19.8662 3.78687 19.6069 3.2342C19.3476 2.68153 18.9697 2.19282 18.5 1.80287ZM9.16667 17.4404C9.09667 17.4304 9.02667 17.4187 8.95667 17.4062L3.71917 16.4545C3.14314 16.3497 2.62216 16.0461 2.24707 15.5965C1.87198 15.147 1.66658 14.58 1.66667 13.9945V5.00037C1.66667 4.33733 1.93006 3.70145 2.3989 3.23261C2.86774 2.76377 3.50363 2.50037 4.16667 2.50037C4.31758 2.50073 4.46816 2.5144 4.61667 2.54121L7.8 3.12454C8.18301 3.19463 8.52939 3.3966 8.77904 3.69541C9.02868 3.99422 9.16582 4.371 9.16667 4.76037V17.4404ZM18.3333 13.9945C18.3334 14.58 18.128 15.147 17.7529 15.5965C17.3778 16.0461 16.8569 16.3497 16.2808 16.4545L11.0433 17.4062C10.9733 17.4187 10.9033 17.4304 10.8333 17.4404V4.76037C10.8333 4.37005 10.9702 3.99209 11.2203 3.69238C11.4703 3.39268 11.8176 3.19024 12.2017 3.12037L15.3858 2.53704C15.7464 2.47143 16.117 2.48592 16.4714 2.57947C16.8258 2.67301 17.1553 2.84334 17.4365 3.07838C17.7178 3.31342 17.9439 3.60742 18.0988 3.93956C18.2538 4.2717 18.3339 4.63386 18.3333 5.00037V13.9945Z" fill="#374957"/>
</g>
<defs>
<clipPath id="clip0_243_12508">
<rect width="20" height="20" fill="white"/>
</clipPath>
</defs>
</svg>
