<svg width="22" height="20" viewBox="0 0 22 20" fill="none" xmlns="http://www.w3.org/2000/svg">
<g clip-path="url(#clip0_243_12511)">
<path d="M20.2184 4.35815L13.4589 1.43065C11.971 0.622683 10.119 0.608347 8.61617 1.39315L1.78061 4.35815C1.75496 4.36983 1.72836 4.38233 1.70361 4.39565C0.0814552 5.23885 -0.481693 7.11788 0.44583 8.59257C0.760232 9.09249 1.22271 9.5021 1.78061 9.77483L3.66621 10.5915V14.6748C3.66733 16.5007 4.97422 18.1139 6.89196 18.6565C8.22653 19.0075 9.61033 19.1793 10.9996 19.1665C12.3886 19.1807 13.7724 19.0103 15.1072 18.6607C17.0249 18.1181 18.3318 16.5049 18.3329 14.679V10.5898L20.1663 9.79315V16.6665C20.1663 17.1267 20.5766 17.4998 21.0829 17.4998C21.5892 17.4998 21.9996 17.1267 21.9996 16.6665V6.66647C22.0057 5.68792 21.1557 4.78393 20.2184 4.35815ZM16.4995 14.679C16.5 15.7712 15.7205 16.7372 14.5745 17.0648C13.4124 17.3667 12.2081 17.5132 10.9995 17.4998C9.79093 17.5132 8.58665 17.3667 7.42451 17.0648C6.27849 16.7372 5.49904 15.7712 5.49951 14.679V11.3857L8.54011 12.7024C9.29035 13.1074 10.1472 13.3202 11.0197 13.3182C11.8502 13.3235 12.6667 13.1237 13.382 12.7399L16.4995 11.3857V14.679ZM19.4329 8.27065L12.5194 11.2707C11.5554 11.7809 10.3606 11.7665 9.41186 11.2332L2.64776 8.30815C1.89379 7.93854 1.61217 7.08327 2.01874 6.39788C2.15624 6.16608 2.36241 5.97393 2.61386 5.84315L9.48426 2.85983C10.4485 2.35069 11.6427 2.3651 12.5918 2.89733L19.3513 5.82483C19.8484 6.07577 20.1594 6.54964 20.1662 7.06651C20.1671 7.55612 19.8897 8.01143 19.4329 8.27065Z" fill="#374957"/>
</g>
<defs>
<clipPath id="clip0_243_12511">
<rect width="22" height="20" fill="white"/>
</clipPath>
</defs>
</svg>
