<svg width="23" height="18" viewBox="0 0 23 18" fill="none" xmlns="http://www.w3.org/2000/svg">
<path d="M9.85742 14.25C9.85742 14.9732 9.93371 15.4372 10.0657 15.7522C10.1807 16.0266 10.3534 16.2275 10.6779 16.3996C11.0386 16.5909 11.5988 16.7508 12.4843 16.8552C13.3612 16.9586 14.4846 17 15.9289 17C17.3731 17 18.4965 16.9586 19.3734 16.8552C20.2589 16.7508 20.8191 16.5909 21.1798 16.3996C21.5043 16.2275 21.677 16.0266 21.792 15.7522C21.924 15.4372 22.0003 14.9732 22.0003 14.25C22.0003 13.5268 21.924 13.0628 21.792 12.7478C21.677 12.4734 21.5043 12.2725 21.1798 12.1004C20.8191 11.9091 20.2589 11.7492 19.3734 11.6448C18.4965 11.5414 17.3731 11.5 15.9289 11.5C14.4846 11.5 13.3612 11.5414 12.4843 11.6448C11.5988 11.7492 11.0386 11.9091 10.6779 12.1004C10.3534 12.2725 10.1807 12.4734 10.0657 12.7478C9.93371 13.0628 9.85742 13.5268 9.85742 14.25Z" stroke="#374957" stroke-width="2" stroke-linecap="round" stroke-linejoin="round"/>
<path d="M12.214 4.5C12.214 6.38967 13.8326 8 15.9283 8C18.024 8 19.6426 6.38967 19.6426 4.5C19.6426 2.61033 18.024 1 15.9283 1C13.8326 1 12.214 2.61033 12.214 4.5Z" stroke="#374957" stroke-width="2"/>
<path d="M9.64286 2.25C7.75714 2.25 6.5 3.75 6.5 5.25C6.5 6.75 7.75714 8.25 9.64286 8.25" stroke="#374957" stroke-width="2" stroke-linecap="round" stroke-linejoin="round"/>
<path d="M6.3951 15.75C3.46177 15.75 1.78557 15.375 1.78557 13.125C1.78557 10.875 3.46177 10.5 8.07129 10.5" stroke="#374957" stroke-width="2" stroke-linecap="round" stroke-linejoin="round"/>
</svg>
