<svg width="24" height="23" viewBox="0 0 24 23" fill="none" xmlns="http://www.w3.org/2000/svg">
<path d="M12 2.07222C15.204 2.07222 15.5822 2.08304 16.8469 2.13985C18.0155 2.19125 18.6507 2.37791 19.0741 2.53482C19.633 2.74312 20.0339 2.992 20.4545 3.39508C20.8751 3.79817 21.1348 4.17961 21.3521 4.71795C21.5159 5.12374 21.7107 5.73242 21.7643 6.85239C21.8207 8.06434 21.8349 8.42955 21.8349 11.4973C21.8349 14.565 21.8236 14.9303 21.7643 16.1422C21.7107 17.2622 21.5159 17.8709 21.3521 18.2766C21.1348 18.8123 20.8751 19.1964 20.4545 19.5995C20.0339 20.0026 19.6358 20.2515 19.0741 20.4598C18.6507 20.6167 18.0155 20.8033 16.8469 20.8547C15.5822 20.9088 15.204 20.9224 12 20.9224C8.79605 20.9224 8.41778 20.9116 7.15314 20.8547C5.98447 20.8033 5.34933 20.6167 4.9259 20.4598C4.36697 20.2515 3.96613 20.0026 3.54552 19.5995C3.12491 19.1964 2.86521 18.815 2.64785 18.2766C2.48412 17.8709 2.28934 17.2622 2.23571 16.1422C2.17925 14.9303 2.16514 14.565 2.16514 11.4973C2.16514 8.42955 2.17643 8.06434 2.23571 6.85239C2.28934 5.73242 2.48412 5.12374 2.64785 4.71795C2.86521 4.18231 3.12491 3.79817 3.54552 3.39508C3.96613 2.992 4.36415 2.74312 4.9259 2.53482C5.34933 2.37791 5.98447 2.19125 7.15314 2.13985C8.41778 2.08574 8.79887 2.07222 12 2.07222ZM12 0C8.74241 0 8.3331 0.0135262 7.05434 0.0703364C5.7784 0.127147 4.90614 0.319219 4.14114 0.605975C3.35356 0.900847 2.68454 1.29311 2.01553 1.93155C1.34933 2.56998 0.937191 3.21113 0.632322 3.9686C0.335921 4.69901 0.132675 5.53493 0.0733945 6.76041C0.0141143 7.98589 0 8.37815 0 11.5C0 14.6219 0.0141143 15.0141 0.0733945 16.2396C0.132675 17.4624 0.333098 18.2983 0.632322 19.0314C0.940014 19.7862 1.34933 20.4273 2.01553 21.0685C2.68172 21.7069 3.35074 22.1019 4.14114 22.394C4.90332 22.6781 5.77558 22.8729 7.05434 22.9297C8.3331 22.9865 8.74241 23 12 23C15.2576 23 15.6669 22.9865 16.9457 22.9297C18.2216 22.8729 19.0939 22.6808 19.8589 22.394C20.6464 22.0992 21.3155 21.7069 21.9845 21.0685C22.6507 20.43 23.0628 19.7889 23.3677 19.0314C23.6641 18.301 23.8673 17.4651 23.9266 16.2396C23.9859 15.0141 24 14.6219 24 11.5C24 8.37815 23.9859 7.98589 23.9266 6.76041C23.8673 5.53764 23.6669 4.70172 23.3677 3.9686C23.06 3.21383 22.6507 2.57269 21.9845 1.93155C21.3183 1.29311 20.6493 0.898142 19.8589 0.605975C19.0967 0.321924 18.2244 0.127147 16.9457 0.0703364C15.6669 0.0135262 15.2576 0 12 0Z" fill="#0C6D95"/>
<path d="M12 5.5C8.54246 5.5 5.73913 8.18653 5.73913 11.5C5.73913 14.8135 8.54246 17.5 12 17.5C15.4575 17.5 18.2609 14.8135 18.2609 11.5C18.2609 8.18653 15.4575 5.5 12 5.5ZM12 15.3964C9.75619 15.3964 7.93417 13.6531 7.93417 11.5C7.93417 9.34693 9.75332 7.60357 12 7.60357C14.2467 7.60357 16.0658 9.34693 16.0658 11.5C16.0658 13.6531 14.2467 15.3964 12 15.3964Z" fill="#0C6D95"/>
<path d="M18.2609 7C19.1253 7 19.8261 6.32843 19.8261 5.5C19.8261 4.67157 19.1253 4 18.2609 4C17.3964 4 16.6957 4.67157 16.6957 5.5C16.6957 6.32843 17.3964 7 18.2609 7Z" fill="#0C6D95"/>
</svg>
