<svg width="18" height="18" viewBox="0 0 18 18" fill="none" xmlns="http://www.w3.org/2000/svg">
<path d="M6.29297 13.8671V6.24705C6.29297 5.94705 6.38297 5.65455 6.54797 5.40705L8.59547 2.36205C8.91797 1.87455 9.72047 1.52955 10.403 1.78455C11.138 2.03205 11.6255 2.85705 11.468 3.59205L11.078 6.04455C11.048 6.26955 11.108 6.47205 11.2355 6.62955C11.363 6.77205 11.5505 6.86205 11.753 6.86205H14.8355C15.428 6.86205 15.938 7.10205 16.238 7.52205C16.523 7.92705 16.5755 8.45205 16.388 8.98455L14.543 14.6021C14.3105 15.5321 13.298 16.2896 12.293 16.2896H9.36797C8.86547 16.2896 8.16047 16.1171 7.83797 15.7946L6.87797 15.0521C6.51047 14.7746 6.29297 14.3321 6.29297 13.8671Z" fill="#1F7168"/>
<path d="M3.9075 4.78516H3.135C1.9725 4.78516 1.5 5.23516 1.5 6.34516V13.8902C1.5 15.0002 1.9725 15.4502 3.135 15.4502H3.9075C5.07 15.4502 5.5425 15.0002 5.5425 13.8902V6.34516C5.5425 5.23516 5.07 4.78516 3.9075 4.78516Z" fill="#1F7168"/>
</svg>
