<svg width="36" height="36" viewBox="0 0 36 36" fill="none" xmlns="http://www.w3.org/2000/svg">
<path d="M15 26.5499H9.315C3.615 26.5499 1.875 24.8099 1.875 19.1099V10.1099C1.875 4.40992 3.615 2.66992 9.315 2.66992H25.11C30.81 2.66992 32.55 4.40992 32.55 10.1099C32.55 10.7249 32.04 11.2349 31.425 11.2349C30.81 11.2349 30.3 10.7249 30.3 10.1099C30.3 5.69992 29.52 4.91992 25.11 4.91992H9.315C4.905 4.91992 4.125 5.69992 4.125 10.1099V19.1099C4.125 23.5199 4.905 24.2999 9.315 24.2999H15C15.615 24.2999 16.125 24.8099 16.125 25.4249C16.125 26.0399 15.615 26.5499 15 26.5499Z" fill="#353639"/>
<path d="M15 33.3302C14.385 33.3302 13.875 32.8202 13.875 32.2052V25.4102C13.875 24.7952 14.385 24.2852 15 24.2852C15.615 24.2852 16.125 24.7952 16.125 25.4102V32.2052C16.125 32.8352 15.615 33.3302 15 33.3302Z" fill="#353639"/>
<path d="M15 20.5498H3C2.385 20.5498 1.875 20.0398 1.875 19.4248C1.875 18.8098 2.385 18.2998 3 18.2998H15C15.615 18.2998 16.125 18.8098 16.125 19.4248C16.125 20.0398 15.615 20.5498 15 20.5498Z" fill="#353639"/>
<path d="M15.0004 33.3301H10.1104C9.49535 33.3301 8.98535 32.8201 8.98535 32.2051C8.98535 31.5901 9.49535 31.0801 10.1104 31.0801H15.0004C15.6154 31.0801 16.1254 31.5901 16.1254 32.2051C16.1254 32.8201 15.6154 33.3301 15.0004 33.3301Z" fill="#353639"/>
<path d="M28.5599 33.3298H23.2349C19.0799 33.3298 17.6699 31.9198 17.6699 27.7648V19.1998C17.6699 15.0448 19.0799 13.6348 23.2349 13.6348H28.5599C32.7149 13.6348 34.1249 15.0448 34.1249 19.1998V27.7648C34.1249 31.9348 32.7149 33.3298 28.5599 33.3298ZM23.2349 15.8848C20.2949 15.8848 19.9199 16.2598 19.9199 19.1998V27.7648C19.9199 30.7048 20.2949 31.0798 23.2349 31.0798H28.5599C31.4999 31.0798 31.8749 30.7048 31.8749 27.7648V19.1998C31.8749 16.2598 31.4999 15.8848 28.5599 15.8848H23.2349Z" fill="#353639"/>
<path d="M25.9502 28.4552C25.5602 28.4552 25.1702 28.3052 24.8852 28.0202C24.7502 27.8852 24.6452 27.7202 24.5702 27.5402C24.4952 27.3452 24.4502 27.1502 24.4502 26.9552C24.4502 26.5652 24.6152 26.1752 24.8852 25.9052C25.2302 25.5602 25.7552 25.3952 26.2502 25.4852C26.3402 25.5152 26.4302 25.5452 26.5202 25.5752C26.6102 25.6202 26.7002 25.6652 26.7752 25.7102C26.8652 25.7702 26.9402 25.8302 27.0152 25.9052C27.2852 26.1752 27.4502 26.5652 27.4502 26.9552C27.4502 27.1502 27.4052 27.3452 27.3302 27.5402C27.2552 27.7202 27.1502 27.8852 27.0152 28.0202C26.9402 28.0952 26.8652 28.1552 26.7752 28.2002C26.7002 28.2602 26.6102 28.3052 26.5202 28.3502C26.4302 28.3802 26.3402 28.4102 26.2502 28.4252C26.1452 28.4552 26.0552 28.4552 25.9502 28.4552Z" fill="#353639"/>
</svg>
