<svg width="22" height="19" viewBox="0 0 22 19" fill="none" xmlns="http://www.w3.org/2000/svg">
<path d="M21.9572 0.408693C21.8778 0.168756 21.783 0.101574 21.6363 0.0439885C21.3155 -0.0839781 20.7715 0.107972 20.7715 0.107972C20.7715 0.107972 1.49196 7.36048 0.39184 8.16347C0.153481 8.33623 0.0740284 8.4354 0.0373578 8.55377C-0.152107 9.12642 0.440735 9.37915 0.440735 9.37915L5.4096 11.0747C5.4096 11.0747 5.59601 11.1035 5.66019 11.0587C6.79086 10.3101 17.0342 3.54068 17.624 3.31354C17.7187 3.28474 17.7859 3.31673 17.7676 3.38392C17.5323 4.25409 8.63662 12.5303 8.63662 12.5303C8.63662 12.5303 8.603 12.5751 8.58161 12.6263L8.56939 12.6199L8.10489 17.7802C8.10489 17.7802 7.90932 19.3605 9.42198 17.7802C10.4885 16.6637 11.5183 15.7327 12.0348 15.2784C13.743 16.5133 15.5826 17.8793 16.3741 18.5928C16.7714 18.9511 17.1075 19.0086 17.3795 18.999C18.1313 18.9703 18.3421 18.1033 18.3421 18.1033C18.3421 18.1033 21.8564 3.30074 21.9725 1.31726C21.9847 1.12211 22 1.00054 22 0.866174C22 0.680622 21.9847 0.495071 21.9572 0.405494V0.408693Z" fill="#0C6D95"/>
</svg>
