<svg width="35" height="35" viewBox="0 0 35 35" fill="none" xmlns="http://www.w3.org/2000/svg">
<path d="M24.7913 30.625V27.7083C24.7913 26.1612 24.1768 24.6775 23.0828 23.5835C21.9888 22.4896 20.5051 21.875 18.958 21.875H7.29134C5.74425 21.875 4.26051 22.4896 3.16655 23.5835C2.07259 24.6775 1.45801 26.1612 1.45801 27.7083V30.625M33.5413 30.625V27.7083C33.5404 26.4159 33.1102 25.1603 32.3183 24.1388C31.5265 23.1173 30.4178 22.3877 29.1663 22.0646M23.333 4.56458C24.5878 4.88586 25.6999 5.61561 26.4942 6.63879C27.2884 7.66197 27.7194 8.92038 27.7194 10.2156C27.7194 11.5109 27.2884 12.7693 26.4942 13.7925C25.6999 14.8156 24.5878 15.5454 23.333 15.8667M18.958 10.2083C18.958 13.43 16.3463 16.0417 13.1247 16.0417C9.90301 16.0417 7.29134 13.43 7.29134 10.2083C7.29134 6.98667 9.90301 4.375 13.1247 4.375C16.3463 4.375 18.958 6.98667 18.958 10.2083Z" stroke="white" stroke-width="2" stroke-linecap="round" stroke-linejoin="round"/>
</svg>
